<svg height="16" viewBox="0 0 16 16" width="16" xmlns="http://www.w3.org/2000/svg"><path d="m14.3978429 2.53949661c2.1362095 2.13585875 2.1362095 5.59904021 0 7.73503569-.8750768.8777298-2.0233717 1.4307894-3.2552544 1.5678461-.1778135.1118705-.2856977.30722-.2856758.5172826v2.8668639c-.0000082.1171683-.0746627.2213132-.1856299.2589585s-.2335887.0004256-.304901-.0925475l-2.40501168-3.1329187c.77577601-.322983 1.48735067-.7969039 2.09028908-1.4015764.737892-.7378175 1.2605737-1.60968288 1.567922-2.53736221l.6959241.0002779c.2265561 0 .4102162-.18366003.4102162-.41021615 0-.19823661-.1406147-.36363089-.3275433-.40188202l-.0826729-.00833413-.4828444.00080398c.0520032-.27179533.0865059-.54628221.1035053-.8216485l1.4656132.00041222c.2265562 0 .4102162-.18366002.4102162-.41021615 0-.1982366-.1406147-.36363089-.3275433-.40188201l-.0826729-.00833413-1.4666858-.00010075c-.0177099-.2751583-.0529027-.54940133-.1055785-.82092316l1.5722643.00059161c.2265562 0 .4102162-.18366003.4102162-.41021615 0-.19823661-.1406147-.36363089-.3275433-.40188201l-.0826729-.00833414-1.7879343-.00035003c-.3081552-.92134604-.8290949-1.78716037-1.5628176-2.52076263-.22980828-.22978526-.47258729-.43869846-.72598055-.62673951 1.76792075-.3978837 3.69602355.09151927 5.07279595 1.46815378zm-5.05983922 0c2.13620942 2.13585875 2.13620942 5.59904021 0 7.73503569-.93462419.9373121-2.17851484 1.5023996-3.49935748 1.5897243-.02755773.0707417-.04165712.1460082-.04157273.221927v2.8668639c-.00000823.1171683-.07466268.2213132-.18562988.2589585-.11096721.0376452-.23358872.0004256-.30490103-.0925475l-3.76342638-4.9048178c-2.07699564-2.14037107-2.05730329-5.55911245.05907704-7.67514409 2.13607268-2.13599548 5.59960103-2.13599548 7.73581046 0zm-5.49334935 1.43345591c-.18692606.10587668-.30386855.3027493-.30741447.51753209l-.06331637 3.82923101c-.00364956.22018138.11238416.42503031.30311618.53512909.19073201.11009879.42617087.10813508.61503951-.00512983l3.2849297-1.96931098c.18427703-.1104625.29633312-.31018467.29458285-.5250103-.00179163-.21482562-.11712515-.41267365-.30319825-.52008371l-3.22175008-1.85992002c-.18606241-.10738685-.41506302-.10831403-.60198907-.00243735z" fill="#fff"/></svg>
